<svg width="45" height="40" viewBox="0 0 45 40" fill="none" xmlns="http://www.w3.org/2000/svg">
<path d="M22.5 9.03226L19.4864 9.26452C17.5378 6.63226 12.077 0 6.63897 0C6.63897 0 2.17523 7.63871 6.54834 17.8323C5.30211 19.9742 4.53172 21.0839 4.37311 23.6387L0 24.3871L0.475831 26.9161L4.46375 26.2452L4.78097 28.0774L1.22356 30.5032L2.28852 32.8L5.57402 30.5032C8.17976 36.8 14.7734 40 22.5 40C30.2266 40 36.8202 36.8 39.426 30.5032L42.7115 32.8L43.7764 30.5032L40.219 28.0774L40.5363 26.2452L44.5242 26.9161L45 24.3871L40.6269 23.6387C40.4683 21.0839 39.6979 19.9742 38.4517 17.8323C42.8248 7.63871 38.361 0 38.361 0C32.923 0 27.4622 6.63226 25.5136 9.26452L22.5 9.03226ZM15.7024 16.7742C16.3034 16.7742 16.8797 17.0461 17.3046 17.53C17.7296 18.014 17.9683 18.6704 17.9683 19.3548C17.9683 20.0393 17.7296 20.6957 17.3046 21.1796C16.8797 21.6636 16.3034 21.9355 15.7024 21.9355C15.1015 21.9355 14.5251 21.6636 14.1002 21.1796C13.6753 20.6957 13.4366 20.0393 13.4366 19.3548C13.4366 18.6704 13.6753 18.014 14.1002 17.53C14.5251 17.0461 15.1015 16.7742 15.7024 16.7742ZM29.2976 16.7742C29.8985 16.7742 30.4749 17.0461 30.8998 17.53C31.3247 18.014 31.5634 18.6704 31.5634 19.3548C31.5634 20.0393 31.3247 20.6957 30.8998 21.1796C30.4749 21.6636 29.8985 21.9355 29.2976 21.9355C28.6966 21.9355 28.1203 21.6636 27.6954 21.1796C27.2704 20.6957 27.0317 20.0393 27.0317 19.3548C27.0317 18.6704 27.2704 18.014 27.6954 17.53C28.1203 17.0461 28.6966 16.7742 29.2976 16.7742ZM20.2341 24.5161H24.7659L23.1798 28.1032C23.6329 29.7548 24.9018 30.9677 26.4653 30.9677C27.3667 30.9677 28.2312 30.5599 28.8686 29.834C29.506 29.108 29.864 28.1234 29.864 27.0968H30.997C30.997 28.4656 30.5195 29.7784 29.6697 30.7464C28.8198 31.7143 27.6671 32.2581 26.4653 32.2581C24.7659 32.2581 23.2931 31.2 22.5 29.6774C21.7069 31.2 20.2341 32.2581 18.5347 32.2581C17.3329 32.2581 16.1802 31.7143 15.3303 30.7464C14.4805 29.7784 14.003 28.4656 14.003 27.0968H15.136C15.136 28.1234 15.494 29.108 16.1314 29.834C16.7688 30.5599 17.6333 30.9677 18.5347 30.9677C20.0982 30.9677 21.3671 29.7548 21.8202 28.1032L20.2341 24.5161Z" fill="#E9A522"/>
</svg>
